<svg width="73" height="91" viewBox="0 0 73 91" fill="none" xmlns="http://www.w3.org/2000/svg">
<g id="&#240;&#159;&#166;&#134; icon &#34;podium&#34;">
<path id="Vector" d="M71.3758 24.926C70.9533 24.3914 70.4147 23.9601 69.8007 23.6647C69.1867 23.3694 68.5135 23.2178 67.8321 23.2215H18.4905V20.9787C18.4961 19.026 19.1386 17.1285 20.3206 15.5741C21.5025 14.0198 23.1593 12.8935 25.0395 12.3663C26.2474 13.5318 27.8472 14.2038 29.5251 14.2503H34.0107C35.7952 14.2503 37.5066 13.5414 38.7684 12.2796C40.0302 11.0177 40.7391 9.30634 40.7391 7.52186C40.7391 5.73738 40.0302 4.02598 38.7684 2.76416C37.5066 1.50234 35.7952 0.793457 34.0107 0.793457H29.5251C28.5139 0.794849 27.5162 1.02568 26.6071 1.46856C25.698 1.91144 24.9013 2.55482 24.2769 3.35025C20.1424 4.09597 16.4006 6.2689 13.7038 9.49034C11.007 12.7118 9.52612 16.7774 9.51931 20.9787V23.2215H5.03371C4.35238 23.2178 3.67916 23.3694 3.06516 23.6647C2.45116 23.9601 1.91251 24.3914 1.49009 24.926C1.04074 25.4586 0.721658 26.0886 0.558151 26.766C0.394643 27.4434 0.391205 28.1495 0.548108 28.8285L3.32918 39.9976C3.99322 42.5703 5.40398 44.8888 7.38365 46.6609C9.36331 48.433 11.8233 49.5794 14.4535 49.9557L17.9522 81.3549H14.0049C12.8153 81.3549 11.6743 81.8275 10.8331 82.6687C9.9919 83.5099 9.51931 84.6508 9.51931 85.8405C9.51931 87.0301 9.9919 88.1711 10.8331 89.0123C11.6743 89.8535 12.8153 90.3261 14.0049 90.3261H58.8609C60.0506 90.3261 61.1915 89.8535 62.0327 89.0123C62.8739 88.1711 63.3465 87.0301 63.3465 85.8405C63.3465 84.6508 62.8739 83.5099 62.0327 82.6687C61.1915 81.8275 60.0506 81.3549 58.8609 81.3549H54.9136L58.4124 49.9557C61.024 49.5516 63.4589 48.3876 65.4132 46.6087C67.3675 44.8299 68.7549 42.515 69.4021 39.9528L72.3177 28.8285C72.4746 28.1495 72.4712 27.4434 72.3077 26.766C72.1442 26.0886 71.8251 25.4586 71.3758 24.926ZM45.8527 81.5343H27.0132L23.5144 50.1351H49.3515L45.8527 81.5343ZM60.7 37.7997C60.4544 38.7949 59.8754 39.676 59.0592 40.2963C58.2431 40.9166 57.2391 41.2386 56.2144 41.2087H16.5169C15.4922 41.2386 14.4882 40.9166 13.6721 40.2963C12.8559 39.676 12.2768 38.7949 12.0312 37.7997L10.7753 32.1927H62.0906L60.7 37.7997Z" fill="black"/>
</g>
</svg>
