<svg width="68" height="82" viewBox="0 0 68 82" fill="none" xmlns="http://www.w3.org/2000/svg">
<g id="&#240;&#159;&#166;&#134; icon &#34;wedding dress&#34;">
<path id="Vector" d="M1.52607 80.3276C1.86748 80.8314 2.32713 81.2438 2.86482 81.5289C3.4025 81.814 4.00184 81.963 4.61043 81.9629H64.2116C64.8208 81.9633 65.4208 81.8144 65.9591 81.5291C66.4973 81.2438 66.9574 80.8308 67.299 80.3263C67.6405 79.8219 67.8532 79.2414 67.9182 78.6357C67.9833 78.03 67.8988 77.4175 67.6722 76.8521L55.1075 45.4832C58.4835 39.5647 60.3321 32.8986 60.4865 26.0867V3.7363C60.4865 2.74835 60.0941 1.80087 59.3955 1.10228C58.6969 0.403692 57.7494 0.0112305 56.7615 0.0112305C55.7735 0.0112305 54.826 0.403692 54.1274 1.10228C53.4288 1.80087 53.0364 2.74835 53.0364 3.7363V14.4831C49.4477 13.2382 45.6562 12.6822 41.8612 12.8441C40.3764 13.0289 38.9467 13.522 37.6637 14.2918C36.3807 15.0616 35.2728 16.0911 34.411 17.3142C33.5493 16.0911 32.4413 15.0616 31.1583 14.2918C29.8754 13.522 28.4456 13.0289 26.9609 12.8441C23.1658 12.6822 19.3743 13.2382 15.7856 14.4831V3.7363C15.7856 2.74835 15.3932 1.80087 14.6946 1.10228C13.996 0.403692 13.0485 0.0112305 12.0606 0.0112305C11.0726 0.0112305 10.1251 0.403692 9.42655 1.10228C8.72796 1.80087 8.3355 2.74835 8.3355 3.7363V26.0867C8.48993 32.8986 10.3386 39.5647 13.7145 45.4832L1.14983 76.8521C0.923433 77.4179 0.839342 78.0307 0.904938 78.6367C0.970534 79.2426 1.18381 79.8232 1.52607 80.3276ZM21.4962 46.0978C21.802 45.3379 21.8487 44.4983 21.6292 43.7091C21.4097 42.9198 20.9361 42.225 20.2818 41.7321C18.3932 40.3128 15.7856 31.246 15.7856 26.0867C15.7856 22.6969 16.5865 20.2943 26.6629 20.2533C27.7059 20.6668 30.2762 24.2652 32.5373 25.5801C33.1062 25.9112 33.7528 26.0857 34.411 26.0857C35.0693 26.0857 35.7158 25.9112 36.2847 25.5801C38.8252 24.0901 40.5872 21.2367 41.8723 20.2943C52.2467 20.2943 53.0476 22.6969 53.0476 26.0867C53.0476 31.246 50.44 40.3128 48.5514 41.7321C47.8979 42.2248 47.4249 42.919 47.2054 43.7074C46.9859 44.4958 47.0322 45.3346 47.337 46.0941L58.706 74.5127H10.1161L21.4962 46.0978Z" fill="black"/>
</g>
</svg>
