<svg width="101" height="100" viewBox="0 0 101 100" fill="none" xmlns="http://www.w3.org/2000/svg">
<g id="&#240;&#159;&#166;&#134; emoji &#34;church&#34;">
<path id="Vector" d="M99.3221 96.8501H97.7592V71.8399C98.9772 71.8982 100.164 71.2217 100.657 70.0503C101.283 68.5607 100.558 66.8395 99.0488 66.223L72.7656 55.4874V44.8468L73.3455 45.0817C74.8551 45.6932 76.6046 44.9851 77.2261 43.5088C77.8526 42.0309 77.1278 40.3196 75.6215 39.7098L53.5006 30.5072V13.0183H61.3119V7.81132H53.5006V0H48.2936V7.81132H40.4822V13.0183H48.2936V30.5055L26.1726 39.7081C24.6663 40.318 23.9415 42.0309 24.568 43.5071C25.1895 44.9851 26.9391 45.6932 28.4453 45.0801L29.0285 44.8435V55.4857L2.74028 66.223C1.234 66.8395 0.509191 68.5607 1.1357 70.0503C1.62557 71.2217 2.81526 71.8998 4.03328 71.8399V96.8501H2.47202C1.61057 96.8501 0.909088 97.5532 0.909088 98.413C0.909088 99.2728 1.61057 99.9743 2.47202 99.9743H99.3221C100.179 99.9743 100.883 99.2711 100.883 98.413C100.883 97.5549 100.179 96.8501 99.3221 96.8501ZM29.0269 96.8501H7.15748V70.7585L29.0269 61.8258V96.8501ZM49.335 94.2474H44.6478V89.5603H49.335V94.2474ZM49.335 87.4775H44.6478V82.7904C44.6478 79.8878 46.6457 77.4617 49.335 76.7636V87.4775ZM57.1446 94.2474H52.4575V89.5603H57.1446V94.2474ZM57.1446 87.4775H52.4575V76.7652C55.1435 77.4634 57.1446 79.8894 57.1446 82.7904V87.4775ZM69.6414 96.8501H60.2688V82.7904C60.2688 77.615 56.0699 73.4178 50.8962 73.4178C45.7192 73.4178 41.5236 77.615 41.5236 82.7904V96.8501H32.1511V43.5771L50.8962 35.9741L69.6414 43.5788V96.8501ZM94.635 96.8501H72.7656V61.8241L94.635 70.7568V96.8501Z" fill="black"/>
<path id="Vector_2" d="M49.3033 54.9827C49.8348 55.7042 50.1647 55.5676 50.0331 54.6812L48.8284 46.5849C48.6968 45.7001 47.877 45.1403 47.0039 45.3419C47.0039 45.3419 46.7889 45.3919 45.9075 45.7551C45.0261 46.1217 44.8428 46.2383 44.8428 46.2383C44.083 46.7099 43.898 47.6863 44.4312 48.4078L49.3033 54.9827Z" fill="black"/>
<path id="Vector_3" d="M39.6891 55.7302L47.7804 56.9332C48.6635 57.0665 48.8018 56.7383 48.0786 56.2034L41.5103 51.333C40.7872 50.8015 39.8508 51.0081 39.4209 51.7945L38.5394 53.9257C38.2878 54.7871 38.8027 55.5969 39.6891 55.7302Z" fill="black"/>
<path id="Vector_4" d="M47.7787 58.6619L39.6842 59.8666C38.8011 59.9982 38.2395 60.818 38.4428 61.6911C38.4428 61.6911 38.4911 61.9061 38.8544 62.7875C39.2209 63.6673 39.3376 63.8522 39.3376 63.8522C39.8091 64.6121 40.7855 64.797 41.507 64.2638L48.0803 59.3917C48.8035 58.8585 48.6652 58.5286 47.7787 58.6619Z" fill="black"/>
<path id="Vector_5" d="M49.3033 60.6108L44.4346 67.1824C43.9014 67.9039 44.108 68.842 44.8945 69.2702L47.0256 70.1533C47.887 70.4049 48.6952 69.89 48.8268 69.0036L50.0315 60.9123C50.1648 60.0276 49.8365 59.8893 49.3033 60.6108Z" fill="black"/>
<path id="Vector_6" d="M52.9641 69.0101C53.0957 69.8932 53.9155 70.4531 54.7886 70.2515C54.7886 70.2515 55.0035 70.2032 55.885 69.8399C56.7631 69.4733 56.9497 69.3567 56.9497 69.3567C57.7095 68.8852 57.8945 67.9087 57.3613 67.1873L52.4892 60.6106C51.956 59.8891 51.6244 60.0274 51.7594 60.9139L52.9641 69.0101Z" fill="black"/>
<path id="Vector_7" d="M62.1034 59.8646L54.0121 58.6615C53.129 58.5282 52.9907 58.8565 53.7105 59.3913L60.2822 64.2601C61.002 64.7933 61.9417 64.5867 62.3683 63.8002L63.2531 61.6691C63.5047 60.806 62.9898 59.9978 62.1034 59.8646Z" fill="black"/>
<path id="Vector_8" d="M54.0104 56.9339L62.1083 55.7292C62.9914 55.5976 63.5529 54.7778 63.3496 53.903C63.3496 53.903 63.3013 53.6897 62.9381 52.8083C62.5715 51.9285 62.4549 51.7436 62.4549 51.7436C61.9833 50.9821 61.0069 50.7988 60.2854 51.332L53.7088 56.2041C52.989 56.7373 53.1273 57.0672 54.0104 56.9339Z" fill="black"/>
<path id="Vector_9" d="M52.4892 54.9827L57.3579 48.4127C57.8911 47.6913 57.6845 46.7532 56.898 46.3249L54.7669 45.4418C53.9055 45.1886 53.0973 45.7051 52.9624 46.5915L51.761 54.6811C51.626 55.5676 51.956 55.7059 52.4892 54.9827Z" fill="black"/>
<path id="Vector_10" d="M18.6595 82.594C18.991 83.0456 19.196 82.9606 19.1127 82.4041L18.3595 77.3454C18.2762 76.7922 17.7647 76.4423 17.2182 76.5689C17.2182 76.5689 17.0865 76.6005 16.535 76.8255C15.9852 77.0554 15.8702 77.1271 15.8702 77.1271C15.3936 77.4253 15.2787 78.0335 15.6153 78.4817L18.6595 82.594Z" fill="black"/>
<path id="Vector_11" d="M12.6494 83.0599L17.7048 83.813C18.263 83.898 18.3463 83.6914 17.8964 83.3581L13.7858 80.3156C13.3342 79.979 12.7494 80.1106 12.4811 80.6055L11.9279 81.9352C11.7746 82.4717 12.0979 82.9765 12.6494 83.0599Z" fill="black"/>
<path id="Vector_12" d="M12.1262 87.4675C12.3561 88.0207 12.4294 88.1357 12.4294 88.1357C12.726 88.6122 13.3358 88.7272 13.7841 88.3906L17.898 85.3464C18.3479 85.0148 18.2612 84.8082 17.7064 84.8915L12.646 85.6447C12.0945 85.7296 11.7429 86.2395 11.8679 86.7877C11.8679 86.7877 11.8996 86.9193 12.1262 87.4675Z" fill="black"/>
<path id="Vector_13" d="M18.6596 86.1109L15.6153 90.2215C15.2788 90.6714 15.4104 91.2579 15.9053 91.5245L17.2349 92.076C17.7748 92.2343 18.278 91.9094 18.3613 91.3578L19.1144 86.3008C19.1978 85.7443 18.9928 85.6593 18.6596 86.1109Z" fill="black"/>
<path id="Vector_14" d="M20.9473 91.36C21.0306 91.9132 21.5421 92.2647 22.0886 92.1364C22.0886 92.1364 22.2203 92.1048 22.7685 91.8798C23.3217 91.6515 23.4366 91.5782 23.4366 91.5782C23.9132 91.2816 24.0281 90.6718 23.6916 90.2236L20.6474 86.1113C20.3158 85.6598 20.1075 85.7464 20.1908 86.3013L20.9473 91.36Z" fill="black"/>
<path id="Vector_15" d="M26.6591 85.6447L21.6037 84.8915C21.0456 84.8082 20.9622 85.0148 21.4121 85.3464L25.5227 88.3906C25.971 88.7255 26.5591 88.5956 26.8241 88.1007L27.3773 86.771C27.5372 86.2328 27.2106 85.7296 26.6591 85.6447Z" fill="black"/>
<path id="Vector_16" d="M21.6037 83.8148L26.6591 83.06C27.214 82.9766 27.5655 82.4651 27.4372 81.9186C27.4372 81.9186 27.4056 81.7853 27.179 81.2371C26.9524 80.6856 26.8791 80.5706 26.8791 80.5706C26.5825 80.094 25.9726 79.9791 25.5244 80.3157L21.4105 83.3582C20.9622 83.6915 21.0456 83.8981 21.6037 83.8148Z" fill="black"/>
<path id="Vector_17" d="M20.649 82.5935L23.6932 78.4845C24.0298 78.0347 23.8982 77.4481 23.4033 77.1815L22.0736 76.6283C21.5338 76.4701 21.0306 76.7966 20.9472 77.3482L20.1941 82.4035C20.1075 82.9601 20.3157 83.045 20.649 82.5935Z" fill="black"/>
<path id="Vector_18" d="M81.1434 82.594C81.475 83.0456 81.6799 82.9606 81.5966 82.4041L80.8435 77.3454C80.7601 76.7922 80.2486 76.4423 79.7021 76.5689C79.7021 76.5689 79.5705 76.6005 79.0189 76.8255C78.4691 77.0554 78.3541 77.1271 78.3541 77.1271C77.8776 77.4253 77.7626 78.0335 78.0992 78.4817L81.1434 82.594Z" fill="black"/>
<path id="Vector_19" d="M75.1333 83.0599L80.1887 83.813C80.7469 83.898 80.8302 83.6914 80.3803 83.3581L76.2697 80.3156C75.8181 79.979 75.2333 80.1106 74.965 80.6055L74.4118 81.9352C74.2585 82.4717 74.5818 82.9765 75.1333 83.0599Z" fill="black"/>
<path id="Vector_20" d="M74.6101 87.4675C74.84 88.0207 74.9134 88.1357 74.9134 88.1357C75.21 88.6122 75.8198 88.7272 76.268 88.3906L80.382 85.3464C80.8318 85.0148 80.7452 84.8082 80.1903 84.8915L75.13 85.6447C74.5784 85.7296 74.2269 86.2395 74.3518 86.7877C74.3518 86.7877 74.3835 86.9193 74.6101 87.4675Z" fill="black"/>
<path id="Vector_21" d="M81.1435 86.1109L78.0993 90.2215C77.7627 90.6714 77.8943 91.2579 78.3892 91.5245L79.7188 92.076C80.2587 92.2343 80.7619 91.9094 80.8452 91.3578L81.5984 86.3008C81.6817 85.7443 81.4767 85.6593 81.1435 86.1109Z" fill="black"/>
<path id="Vector_22" d="M83.4312 91.36C83.5145 91.9132 84.026 92.2647 84.5726 92.1364C84.5726 92.1364 84.7042 92.1048 85.2524 91.8798C85.8056 91.6515 85.9206 91.5782 85.9206 91.5782C86.3971 91.2816 86.5121 90.6718 86.1755 90.2236L83.1313 86.1113C82.7997 85.6598 82.5914 85.7464 82.6747 86.3013L83.4312 91.36Z" fill="black"/>
<path id="Vector_23" d="M89.143 85.6447L84.0877 84.8915C83.5295 84.8082 83.4462 85.0148 83.896 85.3464L88.0066 88.3906C88.4549 88.7255 89.0431 88.5956 89.308 88.1007L89.8612 86.771C90.0211 86.2328 89.6945 85.7296 89.143 85.6447Z" fill="black"/>
<path id="Vector_24" d="M84.0877 83.8148L89.143 83.06C89.6979 82.9766 90.0495 82.4651 89.9212 81.9186C89.9212 81.9186 89.8895 81.7853 89.6629 81.2371C89.4363 80.6856 89.363 80.5706 89.363 80.5706C89.0664 80.094 88.4565 79.9791 88.0083 80.3157L83.8944 83.3582C83.4462 83.6915 83.5295 83.8981 84.0877 83.8148Z" fill="black"/>
<path id="Vector_25" d="M83.1329 82.5935L86.1772 78.4845C86.5137 78.0347 86.3821 77.4481 85.8872 77.1815L84.5576 76.6283C84.0177 76.4701 83.5145 76.7966 83.4312 77.3482L82.6781 82.4035C82.5914 82.9601 82.7997 83.045 83.1329 82.5935Z" fill="black"/>
</g>
</svg>
