<svg width="23" height="22" viewBox="0 0 23 22" fill="none" xmlns="http://www.w3.org/2000/svg">
<path id="Vector" d="M19.1895 3.24121C17.1436 1.19043 14.4189 0.0625 11.5234 0.0625C5.54687 0.0625 0.683594 4.92578 0.683594 10.9023C0.683594 12.8115 1.18164 14.6768 2.12891 16.3223L0.59082 21.9375L6.33789 20.4287C7.91992 21.293 9.70215 21.7471 11.5186 21.7471H11.5234C17.4951 21.7471 22.4658 16.8838 22.4658 10.9072C22.4658 8.01172 21.2354 5.29199 19.1895 3.24121ZM11.5234 19.9209C9.90234 19.9209 8.31543 19.4863 6.93359 18.666L6.60645 18.4707L3.19824 19.3643L4.10645 16.0391L3.8916 15.6973C2.98828 14.2617 2.51465 12.6064 2.51465 10.9023C2.51465 5.93652 6.55762 1.89355 11.5283 1.89355C13.9355 1.89355 16.1963 2.83105 17.8955 4.53516C19.5947 6.23926 20.6396 8.5 20.6348 10.9072C20.6348 15.8779 16.4893 19.9209 11.5234 19.9209ZM16.4648 13.1729C16.1963 13.0361 14.8633 12.3818 14.6143 12.2939C14.3652 12.2012 14.1846 12.1572 14.0039 12.4307C13.8232 12.7041 13.3057 13.3096 13.1445 13.4951C12.9883 13.6758 12.8271 13.7002 12.5586 13.5635C10.9668 12.7676 9.92188 12.1426 8.87207 10.3408C8.59375 9.8623 9.15039 9.89648 9.66797 8.86133C9.75586 8.68066 9.71191 8.52441 9.64355 8.3877C9.5752 8.25098 9.0332 6.91797 8.80859 6.37598C8.58887 5.84863 8.36426 5.92188 8.19824 5.91211C8.04199 5.90234 7.86133 5.90234 7.68066 5.90234C7.5 5.90234 7.20703 5.9707 6.95801 6.23926C6.70898 6.5127 6.01074 7.16699 6.01074 8.5C6.01074 9.83301 6.98242 11.1221 7.11426 11.3027C7.25098 11.4834 9.02344 14.2178 11.7432 15.3945C13.4619 16.1367 14.1357 16.2002 14.9951 16.0732C15.5176 15.9951 16.5967 15.4189 16.8213 14.7842C17.0459 14.1494 17.0459 13.6074 16.9775 13.4951C16.9141 13.373 16.7334 13.3047 16.4648 13.1729Z" fill="black"/>
</svg>
